<svg width="221" height="57" viewBox="0 0 221 57" fill="none" xmlns="http://www.w3.org/2000/svg">
<g clip-path="url(#clip0_1351_2661)">
<path d="M132.895 53.361L134.221 53.244C134.278 53.775 134.422 54.204 134.653 54.528C134.881 54.852 135.241 55.137 135.73 55.383L136.084 55.512L136.483 55.614L136.897 55.671L137.362 55.692C137.914 55.692 138.382 55.614 138.769 55.461C139.156 55.305 139.459 55.089 139.675 54.813C139.894 54.534 140.002 54.228 140.002 53.889C140.002 53.55 139.906 53.259 139.717 53.016C139.525 52.773 139.207 52.563 138.757 52.389L136.909 51.897L136.51 51.804L136.213 51.717L135.625 51.537C135.307 51.435 135.034 51.327 134.812 51.21C134.32 50.949 133.942 50.622 133.681 50.232C133.555 50.034 133.462 49.827 133.399 49.608L133.333 49.275L133.303 48.897C133.303 48.351 133.45 47.856 133.741 47.415C134.032 46.974 134.476 46.62 135.07 46.359C135.664 46.098 136.321 45.969 137.041 45.969C137.824 45.969 138.517 46.095 139.123 46.341C139.726 46.59 140.191 46.965 140.515 47.469L140.689 47.811L140.899 48.282L140.941 48.426L140.992 48.708L141.028 48.984L141.034 49.143L139.684 49.245C139.612 48.597 139.363 48.096 138.937 47.742C138.511 47.388 137.899 47.208 137.095 47.208C136.255 47.208 135.637 47.361 135.244 47.667C134.851 47.973 134.653 48.351 134.653 48.801C134.653 49.173 134.788 49.485 135.061 49.734C135.334 49.983 136.045 50.238 137.194 50.496C138.343 50.754 139.123 50.982 139.54 51.18C140.158 51.465 140.617 51.828 140.911 52.269C141.055 52.482 141.166 52.719 141.238 52.98L141.325 53.37L141.355 53.775C141.355 54.327 141.202 54.852 140.896 55.347C140.59 55.845 140.116 56.238 139.477 56.526C138.838 56.814 138.154 56.958 137.425 56.958C136.501 56.958 135.709 56.82 135.049 56.544C134.389 56.268 133.864 55.845 133.471 55.275C133.282 54.984 133.138 54.678 133.036 54.354L132.928 53.868C132.907 53.685 132.895 53.517 132.895 53.361Z" fill="#024868"/>
<path d="M143.59 51.6C143.59 49.878 144.061 48.51 145.003 47.49C145.945 46.47 147.172 45.96 148.678 45.96C149.65 45.96 150.52 46.185 151.291 46.638C152.062 47.091 152.665 47.745 153.1 48.6C153.535 49.455 153.751 50.415 153.751 51.477C153.751 52.536 153.532 53.49 153.1 54.345C152.665 55.197 152.044 55.848 151.24 56.292C150.436 56.736 149.578 56.958 148.669 56.958C147.688 56.958 146.806 56.7179 146.026 56.2409C145.246 55.7639 144.643 55.098 144.22 54.243C143.803 53.391 143.59 52.509 143.59 51.6ZM145.042 51.621C145.042 52.896 145.387 53.904 146.074 54.645C146.764 55.383 147.628 55.7549 148.666 55.7549C149.725 55.7549 150.595 55.383 151.279 54.639C151.963 53.895 152.305 52.839 152.305 51.471C152.305 51.069 152.269 50.67 152.197 50.268C152.125 49.866 152.014 49.512 151.864 49.203C151.579 48.57 151.153 48.072 150.589 47.712C150.022 47.352 149.389 47.172 148.69 47.172C147.694 47.172 146.839 47.514 146.119 48.201C145.399 48.885 145.042 50.028 145.042 51.621Z" fill="#024868"/>
<path d="M156.385 56.7784V46.1494H163.555V47.4034H157.792V50.6944H162.781V51.9484H157.792V56.7784H156.385Z" fill="#024868"/>
<path d="M168.828 56.7784V47.4034H165.327V46.1494H173.751V47.4034H170.235V56.7784H168.828Z" fill="#024868"/>
<path d="M177.793 56.7784L174.973 46.1494H176.416L178.033 53.1184L178.273 54.2074L178.483 55.2964L178.96 53.3314L180.982 46.1524H182.677L184.201 51.5314C184.579 52.8664 184.852 54.1204 185.029 55.2934C185.158 54.4954 185.335 53.7244 185.557 52.9804L187.225 46.1494H188.638L185.722 56.7784H184.366L182.125 48.6814L181.792 47.4334C181.675 48.0244 181.573 48.4384 181.48 48.6814L179.224 56.7784H177.793Z" fill="#024868"/>
<path d="M189.526 56.7784L193.609 46.1494H195.124L199.474 56.7784H197.872L196.633 53.5594H192.187L191.02 56.7784H189.526ZM192.592 52.4134H196.195L195.085 49.4704L194.665 48.2974L194.332 47.2684C194.203 47.9824 194.011 48.6604 193.759 49.2994L192.592 52.4134Z" fill="#024868"/>
<path d="M201.36 56.7784V46.1494H206.073C207.015 46.1494 207.729 46.2454 208.215 46.4344C208.701 46.6264 209.097 46.9684 209.4 47.4634C209.706 47.9584 209.856 48.4864 209.856 49.0474C209.856 49.8004 209.616 50.4334 209.139 50.9404C208.662 51.4474 207.903 51.7804 206.862 51.9394C207.216 52.1044 207.495 52.2784 207.702 52.4614L207.984 52.7434C208.023 52.7764 208.068 52.8244 208.122 52.8844C208.176 52.9444 208.23 53.0104 208.29 53.0824L208.587 53.4604L208.878 53.8804L210.726 56.7724H208.956L207.549 54.5614C207.138 53.9044 206.808 53.4184 206.562 53.1064C206.316 52.7944 206.067 52.5544 205.815 52.3864C205.611 52.2574 205.398 52.1614 205.176 52.1044L204.858 52.0684L204.393 52.0534H202.761V56.7724H201.36V56.7784ZM202.767 50.8384H205.791C206.382 50.8384 206.859 50.7724 207.222 50.6434C207.588 50.5144 207.876 50.3014 208.089 50.0074C208.302 49.7164 208.407 49.3954 208.407 49.0474C208.407 48.5434 208.224 48.1324 207.855 47.8084C207.489 47.4844 206.913 47.3224 206.13 47.3224H202.767V50.8384Z" fill="#024868"/>
<path d="M212.836 56.7784V46.1494H220.522V47.4034H214.243V50.6584H220.123V51.9064H214.243V55.5244H220.768V56.7784H212.836Z" fill="#024868"/>
<path d="M60.4385 39.6752V19.7221H53.3105V15.6602H72.3965V19.7221H65.2865V39.6752H60.4385Z" fill="#024868"/>
<path d="M78.9332 39.6752L73.2002 15.6602H78.1652L81.7862 32.1572L86.1752 15.6602H91.9412L96.1502 32.4361L99.8372 15.6602H104.718L98.8862 39.6752H93.7412L88.9562 21.7202L84.1892 39.6752H78.9332Z" fill="#024868"/>
<path d="M107.191 39.6752V15.6602H124.999V19.7221H112.042V25.0471H124.099V29.0942H112.042V35.6312H125.458V39.6782H107.191V39.6752Z" fill="#024868"/>
<path d="M129.618 39.6752V15.6602H134.337L144.165 31.6982V15.6602H148.671V39.6752H143.805L134.124 24.0151V39.6752H129.618Z" fill="#024868"/>
<path d="M153.78 15.6602H162.642C164.694 15.6602 166.218 15.8132 167.211 16.1192C168.576 16.5122 169.782 17.2502 170.832 18.3302C171.804 19.3472 172.56 20.6432 173.1 22.2212C173.64 23.7992 173.91 25.6922 173.91 27.8972C173.91 29.8622 173.664 31.5662 173.172 33.0092C172.581 34.7462 171.726 36.1591 170.601 37.2511C169.761 38.0701 168.624 38.7092 167.193 39.1682L166.374 39.3812L165.375 39.5462L164.229 39.6452L162.903 39.6782H153.78V15.6602ZM158.631 19.7221V35.6282H162.252L164.004 35.5801H164.25C164.337 35.5801 164.457 35.5681 164.61 35.5471L165.183 35.4002C165.924 35.2022 166.563 34.8782 167.091 34.4252C167.619 33.9722 168.054 33.2011 168.393 32.1152C168.732 31.0292 168.9 29.5502 168.9 27.6842C168.9 25.8812 168.741 24.4861 168.426 23.4991C168.108 22.5121 167.649 21.7232 167.049 21.1412C166.449 20.5562 165.696 20.1602 164.79 19.9532C164.058 19.8002 162.732 19.7252 160.809 19.7252H158.631V19.7221Z" fill="#00BDC7"/>
<path d="M19.3743 24.2433L0.0722656 19.8483L11.9523 8.36133L30.4563 13.5063L19.3743 24.2433Z" fill="#024868"/>
<path d="M30.456 16.0947L19.374 26.8047V56.8857L30.456 46.1727V16.0947Z" fill="#00BDC7"/>
<path d="M19.2959 7.51758L33.1049 11.9156V18.4496H36.6479L47.4839 7.97058L19.2959 7.51758Z" fill="#00BDC7"/>
<path d="M44.9047 0.0810547L39.8047 5.01006H46.9117L44.9047 0.0810547Z" fill="#024868"/>
<path d="M182.304 29.1064L179.283 19.7254L183.75 16.5664L187.2 27.4384L182.304 29.1064Z" fill="#024868"/>
<path d="M196.065 19.7254H179.283V16.0624C179.283 15.8134 179.484 15.6094 179.736 15.6094H196.068C196.767 15.6094 197.334 16.1764 197.334 16.8754V18.4594C197.334 19.1584 196.767 19.7254 196.065 19.7254Z" fill="#00BDC7"/>
<path d="M182.304 39.3513L179.283 29.9703L183.75 26.8113L187.2 37.6833L182.304 39.3513Z" fill="#024868"/>
<path d="M196.065 29.9705H179.283V26.3075C179.283 26.0585 179.484 25.8545 179.736 25.8545H196.068C196.767 25.8545 197.334 26.4215 197.334 27.1205V28.7045C197.334 29.4035 196.767 29.9705 196.065 29.9705Z" fill="#00BDC7"/>
<path d="M196.065 39.6756H179.733C179.484 39.6756 179.28 39.4746 179.28 39.2226V36.0096C179.28 35.7606 179.481 35.5566 179.733 35.5566H196.065C196.764 35.5566 197.331 36.1236 197.331 36.8226V38.4066C197.334 39.1086 196.767 39.6756 196.065 39.6756Z" fill="#00BDC7"/>
<path d="M205.737 29.1064L202.716 19.7254L207.18 16.5664L210.633 27.4384L205.737 29.1064Z" fill="#024868"/>
<path d="M219.498 19.7254H202.716V16.0624C202.716 15.8134 202.917 15.6094 203.169 15.6094H219.501C220.2 15.6094 220.767 16.1764 220.767 16.8754V18.4594C220.764 19.1584 220.197 19.7254 219.498 19.7254Z" fill="#00BDC7"/>
<path d="M205.737 39.3513L202.716 29.9703L207.18 26.8113L210.633 37.6833L205.737 39.3513Z" fill="#024868"/>
<path d="M219.498 29.9705H202.716V26.3075C202.716 26.0585 202.917 25.8545 203.169 25.8545H219.501C220.2 25.8545 220.767 26.4215 220.767 27.1205V28.7045C220.764 29.4035 220.197 29.9705 219.498 29.9705Z" fill="#00BDC7"/>
<path d="M219.498 39.6756H203.166C202.917 39.6756 202.713 39.4746 202.713 39.2226V36.0096C202.713 35.7606 202.914 35.5566 203.166 35.5566H219.498C220.197 35.5566 220.764 36.1236 220.764 36.8226V38.4066C220.764 39.1086 220.197 39.6756 219.498 39.6756Z" fill="#00BDC7"/>
</g>
<defs>
<clipPath id="clip0_1351_2661">
<rect width="220.8" height="57" fill="white"/>
</clipPath>
</defs>
</svg>
